<svg xmlns="http://www.w3.org/2000/svg" viewBox="0 0 41 41">
  <g transform="rotate(90 20.5 20.5)">
    <path d="M17.5 3.5 C17.5 7 18.4 11.5 19.6 15.5 L19.6 20.7 L21.4 20.7 L21.4 15.5 C22.6 11.5 23.5 7 23.5 3.5 Z" fill="#E66100"/>
  </g>
  <g transform="rotate(45 20.5 20.5)">
    <path d="M17.5 3.5 C17.5 7 18.4 11.5 19.6 15.5 L19.6 20.7 L21.4 20.7 L21.4 15.5 C22.6 11.5 23.5 7 23.5 3.5 Z" fill="#E66100"/>
  </g>
  <g transform="rotate(0 20.5 20.5)">
    <path d="M17.5 3.5 C17.5 7 18.4 11.5 19.6 15.5 L19.6 20.7 L21.4 20.7 L21.4 15.5 C22.6 11.5 23.5 7 23.5 3.5 Z" fill="#E66100"/>
  </g>
  <g transform="rotate(315 20.5 20.5)">
    <path d="M17.5 3.5 C17.5 7 18.4 11.5 19.6 15.5 L19.6 20.7 L21.4 20.7 L21.4 15.5 C22.6 11.5 23.5 7 23.5 3.5 Z" fill="#E66100"/>
  </g>
  <g transform="rotate(270 20.5 20.5)">
    <path d="M17.5 3.5 C17.5 7 18.4 11.5 19.6 15.5 L19.6 20.7 L21.4 20.7 L21.4 15.5 C22.6 11.5 23.5 7 23.5 3.5 Z" fill="#E66100"/>
  </g>
  <g transform="rotate(225 20.5 20.5)">
    <path d="M17.5 3.5 C17.5 7 18.4 11.5 19.6 15.5 L19.6 20.7 L21.4 20.7 L21.4 15.5 C22.6 11.5 23.5 7 23.5 3.5 Z" fill="#E66100"/>
  </g>
  <g transform="rotate(180 20.5 20.5)">
    <path d="M17.5 3.5 C17.5 7 18.4 11.5 19.6 15.5 L19.6 20.7 L21.4 20.7 L21.4 15.5 C22.6 11.5 23.5 7 23.5 3.5 Z" fill="#E66100"/>
  </g>
  <g transform="rotate(135 20.5 20.5)">
    <path d="M17.5 3.5 C17.5 7 18.4 11.5 19.6 15.5 L19.6 20.7 L21.4 20.7 L21.4 15.5 C22.6 11.5 23.5 7 23.5 3.5 Z" fill="#E66100"/>
  </g>
</svg>